<?xml version="1.0" standalone="no"?>
<!DOCTYPE svg PUBLIC "-//W3C//DTD SVG 20010904//EN"
 "http://www.w3.org/TR/2001/REC-SVG-20010904/DTD/svg10.dtd">
<svg version="1.0" xmlns="http://www.w3.org/2000/svg"
 width="256.000000pt" height="256.000000pt" viewBox="0 0 256.000000 256.000000"
 preserveAspectRatio="xMidYMid meet">
<metadata>
Created by potrace 1.14, written by Peter Selinger 2001-2017
</metadata>
<g transform="translate(0.000000,256.000000) scale(0.100000,-0.100000)"
fill="#000000" stroke="none">
<path d="M0 1280 l0 -1280 573 1 c314 1 557 5 539 9 -73 17 -112 80 -112 180
0 67 -1 71 -27 82 -182 73 -317 159 -420 267 -100 104 -119 148 -92 218 11 31
114 140 231 243 127 113 174 113 316 -2 102 -82 180 -124 248 -133 58 -8 129
8 138 31 13 34 -29 60 -205 125 -244 90 -376 167 -488 284 -84 88 -133 180
-155 288 -44 210 8 390 154 538 73 73 165 131 268 167 32 11 32 11 32 77 0 95
36 152 110 173 24 7 -141 10 -537 11 l-573 1 0 -1280z"/>
<path d="M1441 2550 c77 -23 111 -70 118 -165 l6 -69 70 -26 c229 -86 405
-235 405 -344 0 -64 -32 -113 -163 -247 -171 -177 -213 -187 -349 -82 -90 69
-161 103 -213 103 -46 0 -85 -9 -85 -19 0 -12 68 -41 205 -88 285 -98 401
-159 511 -268 123 -122 170 -251 161 -445 -5 -123 -28 -205 -84 -306 -38 -67
-144 -176 -223 -229 -60 -40 -202 -105 -229 -105 -7 0 -11 -27 -11 -70 0 -101
-28 -148 -107 -176 -33 -11 39 -13 535 -14 l572 0 0 1280 0 1280 -572 -1
c-315 0 -561 -4 -547 -9z"/>
<path d="M1115 2496 c-50 -22 -60 -41 -65 -138 l-5 -89 -66 -23 c-288 -100
-437 -339 -389 -623 42 -254 244 -427 668 -574 94 -33 179 -83 188 -112 10
-30 -16 -86 -46 -102 -16 -8 -53 -18 -83 -21 -105 -12 -223 41 -362 162 -64
57 -102 70 -147 51 -18 -8 -92 -72 -165 -141 -179 -172 -180 -182 -48 -318
106 -107 243 -194 385 -244 l65 -23 5 -95 c5 -88 7 -98 33 -123 27 -28 30 -28
170 -31 228 -6 257 12 257 158 l0 87 62 17 c226 63 423 258 473 467 29 126 16
283 -32 387 -79 169 -234 273 -592 397 -196 68 -241 93 -241 135 0 40 35 61
113 67 80 7 138 -17 255 -104 89 -66 122 -76 170 -50 32 18 252 255 263 284
16 43 10 79 -21 122 -61 83 -244 197 -382 236 l-68 20 0 73 c0 138 -35 162
-238 162 -82 -1 -138 -5 -157 -14z m313 -62 c20 -14 22 -23 22 -109 l0 -94 43
-11 c164 -43 298 -114 395 -210 66 -66 62 -76 -79 -224 -76 -79 -128 -126
-141 -126 -11 0 -57 28 -101 61 -117 88 -154 103 -257 103 -93 0 -133 -14
-169 -60 -27 -35 -28 -93 -1 -127 33 -42 76 -63 261 -127 306 -107 447 -190
524 -305 54 -82 75 -157 75 -269 0 -167 -48 -284 -165 -401 -81 -82 -170 -132
-296 -168 l-84 -25 -3 -103 c-2 -83 -6 -106 -19 -117 -23 -17 -283 -17 -306 0
-13 11 -17 34 -19 117 l-3 105 -90 31 c-108 38 -157 62 -250 125 -93 64 -208
182 -203 211 3 25 259 269 281 269 8 0 54 -32 102 -70 184 -149 334 -190 472
-130 70 31 107 116 79 183 -21 51 -87 91 -259 156 -83 32 -186 75 -227 96
-247 124 -370 291 -370 505 0 231 145 409 393 481 l77 23 0 103 c0 87 3 104
18 112 9 6 76 11 147 11 102 0 135 -3 153 -16z"/>
</g>
</svg>
