<?xml version="1.0" encoding="UTF-8"?>
<svg xmlns="http://www.w3.org/2000/svg" xmlns:xlink="http://www.w3.org/1999/xlink" width="32px" height="32px" viewBox="0 0 32 32" version="1.1">
<g id="surface1">
<path style=" stroke:none;fill-rule:nonzero;fill:rgb(0%,0%,0%);fill-opacity:1;" d="M 0 16 L 0 32 L 7.164062 31.988281 C 11.085938 31.976562 14.125 31.925781 13.898438 31.875 C 12.988281 31.664062 12.5 30.875 12.5 29.625 C 12.5 28.789062 12.488281 28.738281 12.164062 28.601562 C 9.886719 27.6875 8.199219 26.613281 6.914062 25.261719 C 5.664062 23.960938 5.425781 23.414062 5.761719 22.539062 C 5.898438 22.148438 7.1875 20.789062 8.648438 19.5 C 10.238281 18.085938 10.824219 18.085938 12.601562 19.523438 C 13.875 20.550781 14.851562 21.074219 15.699219 21.1875 C 16.425781 21.289062 17.3125 21.085938 17.425781 20.800781 C 17.585938 20.375 17.0625 20.050781 14.863281 19.238281 C 11.8125 18.113281 10.164062 17.148438 8.761719 15.6875 C 7.710938 14.585938 7.101562 13.4375 6.824219 12.085938 C 6.273438 9.460938 6.925781 7.210938 8.75 5.363281 C 9.664062 4.449219 10.8125 3.726562 12.101562 3.273438 C 12.5 3.136719 12.5 3.136719 12.5 2.3125 C 12.5 1.125 12.949219 0.414062 13.875 0.148438 C 14.175781 0.0625 12.113281 0.0234375 7.164062 0.0117188 L 0 0 Z M 0 16 "/>
<path style=" stroke:none;fill-rule:nonzero;fill:rgb(0%,0%,0%);fill-opacity:1;" d="M 18.011719 0.125 C 18.976562 0.414062 19.398438 1 19.488281 2.1875 L 19.5625 3.050781 L 20.4375 3.375 C 23.300781 4.449219 25.5 6.3125 25.5 7.675781 C 25.5 8.476562 25.101562 9.085938 23.460938 10.761719 C 21.324219 12.976562 20.800781 13.101562 19.101562 11.789062 C 17.976562 10.925781 17.085938 10.5 16.4375 10.5 C 15.863281 10.5 15.375 10.613281 15.375 10.738281 C 15.375 10.886719 16.226562 11.25 17.9375 11.835938 C 21.5 13.0625 22.949219 13.824219 24.324219 15.1875 C 25.863281 16.710938 26.449219 18.324219 26.335938 20.75 C 26.273438 22.289062 25.988281 23.3125 25.289062 24.574219 C 24.8125 25.414062 23.488281 26.773438 22.5 27.4375 C 21.75 27.9375 19.976562 28.75 19.636719 28.75 C 19.550781 28.75 19.5 29.085938 19.5 29.625 C 19.5 30.886719 19.148438 31.476562 18.164062 31.824219 C 17.75 31.960938 18.648438 31.988281 24.851562 32 L 32 32 L 32 0 L 24.851562 0.0117188 C 20.914062 0.0117188 17.835938 0.0625 18.011719 0.125 Z M 18.011719 0.125 "/>
<path style=" stroke:none;fill-rule:nonzero;fill:rgb(0%,0%,0%);fill-opacity:1;" d="M 13.9375 0.800781 C 13.3125 1.074219 13.1875 1.3125 13.125 2.523438 L 13.0625 3.636719 L 12.238281 3.925781 C 8.636719 5.175781 6.773438 8.164062 7.375 11.710938 C 7.898438 14.886719 10.425781 17.050781 15.726562 18.886719 C 16.898438 19.300781 17.960938 19.925781 18.074219 20.289062 C 18.199219 20.664062 17.875 21.363281 17.5 21.5625 C 17.300781 21.664062 16.835938 21.789062 16.460938 21.824219 C 15.148438 21.976562 13.675781 21.3125 11.9375 19.800781 C 11.136719 19.085938 10.664062 18.925781 10.101562 19.164062 C 9.875 19.261719 8.949219 20.0625 8.039062 20.925781 C 5.800781 23.074219 5.789062 23.199219 7.4375 24.898438 C 8.761719 26.238281 10.476562 27.324219 12.25 27.949219 L 13.0625 28.238281 L 13.125 29.425781 C 13.1875 30.523438 13.210938 30.648438 13.539062 30.960938 C 13.875 31.3125 13.914062 31.3125 15.664062 31.351562 C 18.511719 31.425781 18.875 31.199219 18.875 29.375 L 18.875 28.289062 L 19.648438 28.074219 C 22.476562 27.289062 24.9375 24.851562 25.5625 22.238281 C 25.925781 20.664062 25.761719 18.699219 25.164062 17.398438 C 24.175781 15.289062 22.238281 13.988281 17.761719 12.4375 C 15.3125 11.585938 14.75 11.273438 14.75 10.75 C 14.75 10.25 15.1875 9.988281 16.164062 9.914062 C 17.164062 9.824219 17.886719 10.125 19.351562 11.210938 C 20.460938 12.039062 20.875 12.164062 21.476562 11.835938 C 21.875 11.613281 24.625 8.648438 24.761719 8.289062 C 24.960938 7.75 24.886719 7.300781 24.5 6.761719 C 23.738281 5.726562 21.449219 4.300781 19.726562 3.8125 L 18.875 3.5625 L 18.875 2.648438 C 18.875 0.925781 18.4375 0.625 15.898438 0.625 C 14.875 0.636719 14.175781 0.6875 13.9375 0.800781 Z M 17.851562 1.574219 C 18.101562 1.75 18.125 1.863281 18.125 2.9375 L 18.125 4.113281 L 18.664062 4.25 C 20.710938 4.789062 22.386719 5.675781 23.601562 6.875 C 24.425781 7.699219 24.375 7.824219 22.613281 9.675781 C 21.664062 10.664062 21.011719 11.25 20.851562 11.25 C 20.710938 11.25 20.136719 10.898438 19.585938 10.488281 C 18.125 9.386719 17.664062 9.199219 16.375 9.199219 C 15.210938 9.199219 14.710938 9.375 14.261719 9.949219 C 13.925781 10.386719 13.914062 11.113281 14.25 11.539062 C 14.664062 12.0625 15.199219 12.324219 17.511719 13.125 C 21.335938 14.460938 23.101562 15.5 24.0625 16.9375 C 24.738281 17.960938 25 18.898438 25 20.300781 C 25 22.386719 24.398438 23.851562 22.9375 25.3125 C 21.925781 26.335938 20.8125 26.960938 19.238281 27.414062 L 18.1875 27.726562 L 18.148438 29.011719 C 18.125 30.050781 18.074219 30.335938 17.914062 30.476562 C 17.625 30.6875 14.375 30.6875 14.085938 30.476562 C 13.925781 30.335938 13.875 30.050781 13.851562 29.011719 L 13.8125 27.699219 L 12.6875 27.3125 C 11.335938 26.835938 10.726562 26.539062 9.5625 25.75 C 8.398438 24.949219 6.960938 23.476562 7.023438 23.113281 C 7.0625 22.800781 10.261719 19.75 10.539062 19.75 C 10.636719 19.75 11.210938 20.148438 11.8125 20.625 C 14.113281 22.488281 15.988281 23 17.710938 22.25 C 18.585938 21.863281 19.050781 20.800781 18.699219 19.960938 C 18.4375 19.324219 17.613281 18.824219 15.460938 18.011719 C 14.425781 17.613281 13.136719 17.074219 12.625 16.8125 C 9.539062 15.261719 8 13.175781 8 10.5 C 8 7.613281 9.8125 5.386719 12.914062 4.488281 L 13.875 4.199219 L 13.875 2.914062 C 13.875 1.824219 13.914062 1.613281 14.101562 1.511719 C 14.210938 1.4375 15.050781 1.375 15.9375 1.375 C 17.210938 1.375 17.625 1.414062 17.851562 1.574219 Z M 17.851562 1.574219 "/>
</g>
</svg>
